<svg width="102" height="57" viewBox="0 0 102 57" fill="none" xmlns="http://www.w3.org/2000/svg">
<path d="M2.07825 37.3374C-4.09567 8.26748 17.7469 1 29.4399 1C41.7887 6.68759 33.1813 10.7426 27.334 12.0592C8.81222 13.3231 10.7299 29.438 14.0039 37.3374C30.2806 53.7682 39.9624 36.2841 42.7688 25.4882L50.4861 1H58.9051L68.7273 28.648L79.251 1H86.2668L101 48.3966C97.0711 57.244 91.8794 52.083 89.7747 48.3966L82.0573 25.4882L70.832 51.5564H63.8162L53.9941 25.4882C52.3103 34.3356 48.1475 42.3404 46.2767 45.2368C23.2648 67.9872 7.22277 49.4499 2.07825 37.3374Z" fill="white" stroke="white"/>
</svg>
